<svg id="Layer_1" enable-background="new 0 0 53 53" viewBox="0 0 53 53" xmlns="http://www.w3.org/2000/svg"><g><g><g><circle cx="29.008" cy="31.245" r="18.162"/><path d="m28.9853516 49.9161377c-2.9433594 0-5.8642578-.7050781-8.5546875-2.0966797-4.4267578-2.2910156-7.6962891-6.1689453-9.2070313-10.9199219-1.5107422-4.75-1.0810547-9.8046875 1.2099409-14.2314453 2.2910357-4.4267578 6.1689653-7.69629 10.9199419-9.2070322 4.7490234-1.5117188 9.8027344-1.0820313 14.2314453 1.2099609 4.4267578 2.2910166 7.6962891 6.1689463 9.2070313 10.9199228 1.5107422 4.75 1.0810547 9.8046875-1.2099609 14.2314453s-6.1689453 7.6962891-10.9199219 9.2070313c-1.8642578.5927735-3.7753906.8867188-5.6767578.8867188zm.0429687-36.3417978c-1.7998047 0-3.6074219.2783203-5.3720703.8398438-4.4960938 1.4296875-8.1660156 4.5234385-10.3349609 8.7138681-2.1679688 4.1894531-2.5742188 8.9726563-1.1445313 13.46875s4.5234375 8.1660156 8.7138672 10.3349609c4.1884766 2.1669922 8.9716797 2.5751953 13.46875 1.1445313 4.4960938-1.4296875 8.1660156-4.5234375 10.3349609-8.7138672 2.1679688-4.1894531 2.5742188-8.9726563 1.1445313-13.46875-1.4296875-4.4960938-4.5234375-8.1660157-8.7138672-10.3349619-2.5449219-1.3164063-5.3105469-1.984375-8.0966797-1.984375z"/></g><g><path d="m28.3861084 15.8448477-7.7700195 2.4699717c-.960022.2999878-1.9899902-.2299805-2.289978-1.1900024l-.9899902-3.1199961c-.3099976-.9599609.2199707-1.9899902 1.1799927-2.289978l7.7699585-2.4700317c.960022-.3099976 1.9900513.2200317 2.3000488 1.1799927l.9899902 3.1200562c.2999877.9599607-.2300416 1.98999-1.1900025 2.2999876z"/><path d="m20.0654297 18.8985596c-.3691406 0-.7353516-.0878906-1.0712891-.2626953-.5537109-.2861328-.9599609-.7695313-1.1455078-1.3613281l-.9892578-3.118165c-.1914063-.5917969-.1386719-1.2246094.1484375-1.7783203.2861328-.5507813.7685547-.9560547 1.3583984-1.140625l7.7685547-2.46875c.5869141-.1884766 1.21875-.1396484 1.7734375.1455078.5527344.2832031.9628906.765625 1.1533203 1.3574219l.9912109 3.1220703c.3818359 1.2226563-.2978516 2.5351563-1.5136719 2.9267588-.0009766.0009766-.0009766.0009766-.0019531.0009766l-7.7695313 2.4697266c-.2304686.0722654-.4667967.1074217-.7021483.1074217zm6.7822266-9.2421885c-.1367188 0-.2744141.0214844-.4072266.0644531l-7.7734375 2.4707031c-.3359375.1054688-.609375.3339844-.7714844.6464844-.1630859.3154297-.1923828.6748047-.0839844 1.0136719l.9912109 3.1220713c.2167969.6972656.9677734 1.0830078 1.6640625.8632813l7.765625-2.4677744c.6962891-.2246094 1.0849609-.9765625.8662109-1.6748047l-.9892577-3.1181641c-.1083984-.3359375-.3417969-.6103516-.6582031-.7724609-.1894531-.0976563-.3964844-.147461-.6035156-.147461zm1.5380859 6.1884766h.0097656z"/></g><g><path d="m18.9873047 12.060668c-.2529297 0-.4697266-.1914063-.4960938-.4482422-.0107422-.1005859-.2900391-2.46875-1.9560547-2.3398438-1.6015825.0966797-2.7128906-.2871094-3.2802734-1.1171875-.8466797-1.2392573-.0859375-2.9492183-.0527344-3.0214839.1132813-.25.4082031-.3623047.6601563-.2480469.2519531.1132813.3632813.4091797.2509766.6611328-.1582031.3515625-.4707031 1.40625-.03125 2.0458984.4443359.6474605 1.5458984.7255855 2.3984375.6816401 2.1054688-.1064453 2.8876953 2.0664063 3.0048828 3.2373047.0283203.2744141-.171875.5185547-.4462891.546875-.0175781.0019533-.0341797.0019533-.0517578.0019533z"/></g><g><path d="m24.9760742 16.9248047-7.7699585 2.4700317c-.960022.3099976-1.9900513-.2200317-2.3000488-1.1799927l-.9899902-3.1199961c-.3099976-.960022.2300415-1.9899902 1.1900024-2.2999878l7.7700195-2.4700317c.960022-.2999878 1.9899902.2299805 2.289978 1.1900024l.9899902 3.1199951c.3099977.9600221-.2199706 1.9899913-1.1799926 2.2899791z" fill="#ddd"/><path d="m16.6435547 19.9844971c-.3632813 0-.7255859-.0869141-1.0595703-.2587891-.5527344-.2832031-.9628906-.765625-1.1533203-1.3574219l-.9912109-3.1220713c-.1904297-.5898438-.1367188-1.2207031.1523438-1.7753906.2861328-.5517578.7695313-.9609375 1.3613281-1.1513672l7.7714844-2.4707031c.59375-.1855469 1.2246094-.1298828 1.7734375.1542969.5537109.2871094.9599609.7705078 1.1455078 1.3623047l.9892578 3.1181641c.1914063.5917969.1386719 1.2246094-.1484375 1.7783213-.2851563.5498047-.7666016.9550781-1.3564453 1.1396484l-7.7705078 2.4697266c-.2333986.0751952-.4736329.1132812-.7138673.1132812zm6.7822266-9.243165c-.1347656 0-.2685547.0195313-.4003906.0615234l-7.7675781 2.46875c-.7001953.2255859-1.0898438.9755859-.8662109 1.6699219l.9912109 3.1220713c.1083984.3359375.3417969.6103516.6582031.7724609.3144531.1621094.6757813.1904297 1.0107422.0830078l7.7734375-2.4707031c.0009766 0 .0019531 0 .0019531-.0009766.3339844-.1044922.6074219-.3330078.7695313-.6455088.1630859-.3154297.1923828-.6748047.0839844-1.0136719l-.9912109-3.1220703c-.1054688-.3378906-.3359375-.6123047-.6503906-.7744141-.1933596-.1005859-.4023439-.1503905-.6132814-.1503905z"/></g><g><circle cx="25.593" cy="32.331" fill="#fff" r="18.162"/><path d="m25.5703125 51.0020752c-2.9433594 0-5.8642578-.7050781-8.5546875-2.0966797-4.4267578-2.2910156-7.6962891-6.1689453-9.2070513-10.9199219-1.5107226-4.75-1.0810351-9.8037109 1.209981-14.2314453 2.2910156-4.4267578 6.1689453-7.696289 10.9189453-9.2070322 4.7509766-1.5117188 9.8046875-1.0810547 14.2324219 1.2099609 4.4267578 2.2910166 7.6962891 6.1689463 9.2070313 10.9199228 3.1181641 9.8066406-2.3232422 20.3203125-12.1298828 23.4384766-1.8642579.5927735-3.7753907.8867188-5.6767579.8867188zm.0429688-36.3417978c-1.7998047 0-3.6083984.2783203-5.3730469.8398438-4.4951172 1.4296885-8.1660156 4.5234385-10.3339844 8.7138681-2.1679692 4.1894531-2.5742192 8.9726563-1.1445313 13.46875s4.5234375 8.1660156 8.7138672 10.3349609c4.1884766 2.1669922 8.9726563 2.5751953 13.46875 1.1445313 9.2802735-2.9501954 14.4306641-12.9013672 11.4794922-22.1826172-1.4296875-4.4960938-4.5244141-8.1660156-8.7138672-10.3349609-2.5458984-1.3164073-5.3105468-1.984376-8.0966796-1.984376z"/></g><g><path d="m11.5507813 31.0050049c-.0224609 0-.0439453-.0009766-.0664063-.0039063-.2734375-.0361328-.4667969-.2880859-.4306641-.5615234.7412109-5.6240234 4.7041016-10.3652344 10.0966797-12.0810547.2607422-.0830078.5449219.0625.6279297.3251953.0839844.2626953-.0615234.5439453-.3251953.6279297-5.0244141 1.5986328-8.7177734 6.0175781-9.4072266 11.2587891-.0332031.2519531-.2480468.4345703-.4951171.4345703z"/></g><g><path d="m15.5711069 6.9674745-1.7689161-.1501198c-.0698118-.0068479-.1385078.0070133-.2002497.0402632l-1.5731201.8227105c-.2528696.1342773-.5553398-.0668464-.5293322-.3519731l.1501408-1.7689028c.0067787-.069797-.0070133-.1385078-.0403328-.2002354l-.8226967-1.5731409c-.1342211-.2528634.0668745-.5552909.3519735-.5293324l1.7688608.1502042c.0698671.0067637.1385632-.0070975.200305-.0403471l1.575408-.8261509c.2528696-.1342776.5553398.0668459.5293322.3519728l-.1524286 1.772343c-.0067787.0697975.0070133.1385078.0402765.2003198l.822753 1.5730567c.134222.2528634-.0668746.5552912-.3519736.5293322z" fill="#5ae4a7"/><path d="m11.8613281 8.2227774c-.1669922 0-.3339844-.0488281-.4785156-.1445313-.2636719-.1757808-.4101563-.4794917-.3818359-.7939448l.1503906-1.7666016-.8085938-1.5c-.1464844-.277344-.1289063-.6152346.046875-.8789065s.4824219-.4033203.7949219-.3798828l1.7646484.1503906 1.5019531-.8115234c.2783203-.1474609.6142578-.1308594.8769531.0449219.2646484.1748047.4111328.4794922.3828125.7939453l-.1533203 1.7714846.8085938 1.4990234c.1464844.2744141.1308594.6113281-.0439453.875s-.4814453.4111328-.7929688.3837891l-1.7695313-.1503906-1.4990234.8085933c-.1249999.0654296-.2617187.0986328-.399414.0986328zm-.515625-4.4462889.7070313 1.3515627c.0771484.1425781.1103516.3105469.0947266.4804688l-.1289063 1.5136719 1.3505859-.7080078c.1484375-.0771484.3203125-.1044922.4814453-.0947266l1.5136719.1289063-.7070313-1.3515625c-.0761719-.1435547-.109375-.3085938-.0957031-.4736328l.1318359-1.5234377-1.3535156.7089844c-.1445313.078125-.3066406.1103516-.4814453.0966797zm4.1347657 2.8955081c.0009766.0009766.0009766.0019531.0019531.0019531zm.1347656-.2021484h.0107422zm-4.5185547-2.714844h.0009766zm.1318359-.2021485v.0009766c0-.0009766 0-.0009766 0-.0009766zm3.6894532-.571289-.0009766.0009766z"/></g></g><g><g><g><g><g><g><g><g><circle cx="40.633" cy="40.706" fill="#5ae4a7" r="9.792"/><path d="m40.6337891 50.9981689c-5.6748047 0-10.2919922-4.6171875-10.2919922-10.2919922s4.6162109-10.2919922 10.2910156-10.2919922 10.2919922 4.6171875 10.2919922 10.2919922c.0009766 2.7490234-1.0693359 5.3330078-3.0136719 7.2773438-1.9433594 1.9443359-4.5283203 3.0146484-7.2773437 3.0146484zm-.0009766-19.5839843c-5.1230469 0-9.2910156 4.1679688-9.2910156 9.2919922s4.1679688 9.2919922 9.2919922 9.2919922c2.4824219 0 4.8154297-.9667969 6.5703125-2.7216797s2.7207031-4.0888672 2.7207031-6.5703125c0-5.1240235-4.1679688-9.2919922-9.2919922-9.2919922z"/></g><g><circle cx="40.633" cy="40.706" fill="#fff" r="7.1"/></g></g></g></g></g></g><g><g><path d="m38.7803459 37.3226433c.3836708-.4198189.9213295-.6331787 1.6129837-.6400795l-.0000191-.6864929.4903526-.0000153.0000191.6761703c.6847725.0481567 1.2104034.2503052 1.5768852.6064453.3664856.3561401.5583344.8267021.5755577 1.4116821l-.9032822.0000229c-.0240936-.2615204-.0946426-.486908-.2116432-.6761627-.2167969-.3475418-.5626297-.5299072-1.0374947-.5471001l.0000687 2.5085373c.7983322.2236481 1.3403053.4335365 1.6259193.6296692.4645538.3234482.6968384.8017502.6968575 1.434906.0000229.9153252-.2976112 1.5656967-.8929062 1.9511108-.3303337.213356-.8069191.354454-1.4297523.4232903l.0000305 1.0013504-.4903526.0000153-.0000267-1.0013504c-1.0013542-.0653534-1.6809731-.4197655-2.0388641-1.0632362-.1961479-.3475418-.2942314-.8172455-.2942505-1.4091072l.9136047-.0000267c.0275421.4714279.1015358.8155327.2219772 1.0323143.213356.3888359.6090851.6073303 1.1871872.6554909l-.0000763-2.8130722c-.7432747-.1410637-1.2921333-.3767624-1.6465721-.7070961-.3544388-.3303299-.5316658-.7879868-.5316811-1.3729706-.0000151-.5230408.1918107-.9944725.5754777-1.4142952zm.6917153 2.1523704c.2253952.1926956.5290718.3268852.9110336.4025803l-.0000648-2.4259529c-.4507828.0172195-.771656.1548691-.9626274.4129562-.1909752.2580833-.2864571.5282097-.2864494.810379.0000113.340664.1127128.6073456.338108.8000374zm2.6299324 3.5356255c.1169891-.2064667.1754799-.4456253.1754761-.7174683-.0000153-.4301338-.1583099-.7570305-.4748955-.98069-.1823807-.1307564-.4886398-.2546272-.9187737-.3716125l.0000725 2.715004c.5884209-.027546.994461-.2426224 1.2181206-.6452332z"/></g></g></g><g><g><path d="m36.0957031 41.2061768h-.6201172c-.2763672 0-.5-.2236328-.5-.5s.2236328-.5.5-.5h.6201172c.2763672 0 .5.2236328.5.5s-.2236328.5-.5.5z"/></g><g><path d="m45.7919922 41.2061768h-.6210938c-.2763672 0-.5-.2236328-.5-.5s.2236328-.5.5-.5h.6210938c.2763672 0 .5.2236328.5.5s-.2236328.5-.5.5z"/></g></g></g><g><g><path d="m19.4964676 43.317009v3.2317963c0 2.1783867-3.7876101 3.9490242-8.4627266 3.9490242-4.6707397 0-8.4583492-1.7706375-8.4583492-3.9490242v-3.2317963c0 2.1783905 3.7876096 3.9490242 8.4583492 3.9490242 4.6751165 0 8.4627266-1.7706337 8.4627266-3.9490242z" fill="#5ae4a7"/><path d="m11.0341797 50.9981689c-5.023438 0-8.9589844-1.9541016-8.9589844-4.4492188v-3.2324219c0-.2763672.2236328-.5.5-.5s.5.2236328.5.5c0 1.6660156 3.1982419 3.4492188 7.9589844 3.4492188 4.7626953 0 7.9619141-1.7832031 7.9619141-3.4492188 0-.2763672.2236328-.5.5-.5s.5.2236328.5.5v3.2324219c0 2.4951173-3.9365235 4.4492188-8.9619141 4.4492188zm-7.9589846-5.6064453v1.1572266c0 1.6660156 3.1982419 3.4492188 7.9589844 3.4492188 4.7626953 0 7.9619141-1.7832031 7.9619141-3.4492188v-1.1572266c-1.4785156 1.4228516-4.4550781 2.3740234-7.9619141 2.3740234-3.5048831.0000001-6.480469-.9511718-7.9589844-2.3740234z"/></g><g><path d="m19.4964676 43.317009c0 2.1783905-3.7876101 3.9490242-8.4627266 3.9490242-4.6707397 0-8.4583492-1.7706337-8.4583492-3.9490242 0-2.1829796 3.7876096-3.9490242 8.4583492-3.9490242 4.6751165 0 8.4627266 1.7660446 8.4627266 3.9490242z" fill="#5ae4a7"/><path d="m11.0341797 47.7657471c-5.023438 0-8.9589844-1.9541016-8.9589844-4.4492188 0-2.4941406 3.9355466-4.4482422 8.9589844-4.4482422 5.0253906 0 8.9619141 1.9541016 8.9619141 4.4482422 0 2.4951172-3.9365235 4.4492188-8.9619141 4.4492188zm0-7.897461c-4.7607427 0-7.9589844 1.7832031-7.9589844 3.4482422 0 1.6660156 3.1982419 3.4492188 7.9589844 3.4492188 4.7626953 0 7.9619141-1.7832031 7.9619141-3.4492188 0-1.665039-3.1992188-3.4482422-7.9619141-3.4482422z"/></g></g></g></svg>