<svg height="300" viewBox="0 0 480.14176 480.14176" width="300" xmlns="http://www.w3.org/2000/svg" version="1.1" xmlns:xlink="http://www.w3.org/1999/xlink" xmlns:svgjs="http://svgjs.dev/svgjs"><g width="100%" height="100%" transform="matrix(0.92,0,0,0.92,19.205690784454333,19.205690765380837)"><path d="m446.789062 345.351562c-12.984374-11.199218-29.570312-17.335937-46.71875-17.28125-39.765624 0-72 32.234376-72 72 .066407 39.738282 32.261719 71.933594 72 72 30.15625.015626 57.121094-18.773437 67.550782-47.066406 10.433594-28.292968 2.117187-60.089844-20.832032-79.652344zm0 0" fill="#32ee00" fill-opacity="1" data-original-color="#bddbffff" stroke="none" stroke-opacity="1"/><path d="m328.070312 208.070312 16 24v40l-24 24v16l-32 8-8 24h-24l-16-16v-176l16-16h24l8 24h24l16 16zm0 0" fill="#32ee00" fill-opacity="1" data-original-color="#bddbffff" stroke="none" stroke-opacity="1"/><path d="m192.070312 160.070312 8-24h24l16 16v176l-16 16h-24l-8-24-32-8v-16l-24-24v-40l16-24v-32l16-16zm0 0" fill="#32ee00" fill-opacity="1" data-original-color="#bddbffff" stroke="none" stroke-opacity="1"/><path d="m134.789062 33.351562c-17.558593-20.625-45.210937-29.644531-71.554687-23.335937-26.339844 6.308594-46.910156 26.878906-53.21875 53.21875-6.308594 26.34375 2.710937 53.996094 23.335937 71.554687 12.984376 11.199219 29.574219 17.335938 46.71875 17.28125 39.765626 0 72-32.234374 72-72 .054688-17.144531-6.082031-33.734374-17.28125-46.71875zm0 0" fill="#32ee00" fill-opacity="1" data-original-color="#bddbffff" stroke="none" stroke-opacity="1"/><g fill="#3d9ae2"><path d="m80.070312 104.070312c-4.417968 0-8-3.582031-8-8h-16c.042969 10.136719 6.445313 19.152344 16 22.527344v9.472656h16v-9.472656c11.011719-3.878906 17.621094-15.132812 15.644532-26.640625-1.980469-11.507812-11.96875-19.910156-23.644532-19.886719-4.417968 0-8-3.582031-8-8 0-4.417968 3.582032-8 8-8 4.417969 0 8 3.582032 8 8h16c-.042968-10.132812-6.445312-19.148437-16-22.527343v-9.472657h-16v9.472657c-11.011718 3.878906-17.621093 15.132812-15.640624 26.640625 1.976562 11.507812 11.964843 19.910156 23.640624 19.886718 4.417969 0 8 3.582032 8 8 0 4.417969-3.582031 8-8 8zm0 0" fill="#000000" fill-opacity="1" data-original-color="#3d9ae2ff" stroke="none" stroke-opacity="1"/><path d="m456.550781 343.472656c15.582031-32.238281 23.621094-67.597656 23.519531-103.402344.050782-69.289062-29.914062-135.203124-82.160156-180.71875 1.402344-3.597656 2.132813-7.421874 2.160156-11.28125.035157-12.777343-7.558593-24.34375-19.296874-29.394531-11.738282-5.054687-25.359376-2.613281-34.613282 6.195313-32.996094-16.285156-69.292968-24.769532-106.089844-24.8007815-35.804687-.1015625-71.164062 7.9414065-103.398437 23.5195315-20.179687-20.300782-49.671875-28.265625-77.328125-20.886719-27.65625 7.382813-49.257812 28.984375-56.640625 56.640625-7.378906 27.65625.585937 57.148438 20.886719 77.328125-15.578125 32.234375-23.621094 67.59375-23.5195315 103.398437-.0507813 69.289063 29.9179685 135.207032 82.1601565 180.71875-1.402344 3.597657-2.132813 7.421876-2.160157 11.28125-.03125 12.78125 7.558594 24.347657 19.296876 29.398438 11.738281 5.050781 25.359374 2.613281 34.617187-6.199219 32.996094 16.285157 69.289063 24.769531 106.085937 24.800781 35.804688.101563 71.164063-7.9375 103.402344-23.519531 20.175782 20.300781 49.667969 28.269531 77.328125 20.886719 27.65625-7.378906 49.257813-28.980469 56.636719-56.636719 7.382812-27.660156-.585938-57.152343-20.886719-77.328125zm-88.480469-311.402344c8.835938 0 16 7.164063 16 16 0 8.835938-7.164062 16-16 16-8.835937 0-16-7.164062-16-16 0-8.835937 7.164063-16 16-16zm-352 48c0-35.34375 28.65625-64 64-64 35.347657 0 64 28.65625 64 64 0 35.347657-28.652343 64-64 64-35.328124-.039062-63.960937-28.667968-64-64zm96 368c-8.835937 0-16-7.164062-16-16 0-8.835937 7.164063-16 16-16 8.835938 0 16 7.164063 16 16 0 8.835938-7.164062 16-16 16zm128 16c-33.824218.089844-67.214843-7.589843-97.597656-22.457031 1.015625-3.078125 1.554688-6.296875 1.597656-9.542969 0-17.671874-14.328124-32-32-32-7.523437.03125-14.792968 2.742188-20.503906 7.640626-48.042968-42.464844-75.539062-103.519532-75.496094-167.640626-.097656-32.132812 6.835938-63.894531 20.3125-93.0625 31.660157 20.738282 73.523438 16.421876 100.285157-10.339843s31.078125-68.625 10.339843-100.285157c60.683594-27.808593 130.621094-27.023437 190.664063 2.144532-1.019531 3.082031-1.558594 6.300781-1.601563 9.542968 0 17.671876 14.328126 32 32 32 7.527344-.03125 14.792969-2.738281 20.503907-7.640624 48.046875 42.464843 75.542969 103.519531 75.496093 167.640624.097657 32.132813-6.835937 63.894532-20.3125 93.066407-31.65625-20.738281-73.523437-16.421875-100.28125 10.339843-26.761718 26.757813-31.078124 68.625-10.339843 100.28125-29.171875 13.476563-60.933594 20.410157-93.066407 20.3125zm160 0c-35.34375 0-64-28.652343-64-64 0-35.34375 28.65625-64 64-64 35.347657 0 64 28.65625 64 64-.039062 35.332032-28.667968 63.960938-64 64zm0 0" fill="#000000" fill-opacity="1" data-original-color="#3d9ae2ff" stroke="none" stroke-opacity="1"/><path d="m400.070312 376.070312c4.417969 0 8 3.582032 8 8h16c-.042968-10.132812-6.445312-19.148437-16-22.527343v-9.472657h-16v9.472657c-11.011718 3.878906-17.621093 15.132812-15.640624 26.640625 1.976562 11.507812 11.964843 19.910156 23.640624 19.886718 4.417969 0 8 3.582032 8 8 0 4.417969-3.582031 8-8 8-4.417968 0-8-3.582031-8-8h-16c.042969 10.136719 6.445313 19.152344 16 22.527344v9.472656h16v-9.472656c11.011719-3.878906 17.621094-15.132812 15.644532-26.640625-1.980469-11.507812-11.96875-19.910156-23.644532-19.886719-4.417968 0-8-3.582031-8-8 0-4.417968 3.582032-8 8-8zm0 0" fill="#000000" fill-opacity="1" data-original-color="#3d9ae2ff" stroke="none" stroke-opacity="1"/><path d="m240.070312 80.070312c80.246094.136719 147.996094 59.644532 158.488282 139.199219l-8.800782-8.796875-11.3125 11.308594 24 24c3.125 3.125 8.191407 3.125 11.3125 0l24-24-11.3125-11.308594-11.335937 11.246094c-5.808594-55.195312-37.300781-104.417969-84.972656-132.832031-47.675781-28.414063-105.953125-32.691407-157.265625-11.542969l6.113281 14.792969c19.367187-8.011719 40.128906-12.109375 61.085937-12.066407zm0 0" fill="#000000" fill-opacity="1" data-original-color="#3d9ae2ff" stroke="none" stroke-opacity="1"/><path d="m240.070312 400.070312c-53.375-.027343-103.230468-26.652343-132.933593-71-29.707031-44.347656-35.355469-100.582031-15.066407-149.953124l-14.792968-6.09375c-22.320313 54.304687-16.109375 116.164062 16.5625 164.949218 32.675781 48.78125 87.515625 78.070313 146.230468 78.097656 11.117188 0 22.210938-1.042968 33.136719-3.113281l-2.992187-15.71875c-9.9375 1.886719-20.03125 2.835938-30.144532 2.832031zm0 0" fill="#000000" fill-opacity="1" data-original-color="#3d9ae2ff" stroke="none" stroke-opacity="1"/><path d="m285.925781 393.40625 4.578125 15.328125c5.496094-1.597656 10.933594-3.558594 16.175782-5.703125l-6.074219-14.808594c-4.75 1.945313-9.695313 3.6875-14.679688 5.183594zm0 0" fill="#000000" fill-opacity="1" data-original-color="#3d9ae2ff" stroke="none" stroke-opacity="1"/><path d="m287.664062 346.597656 6.605469-19.832031 27.746094-6.933594c3.558594-.894531 6.054687-4.089843 6.054687-7.761719v-12.6875l21.65625-21.65625c1.5-1.5 2.34375-3.535156 2.34375-5.65625v-40c0-1.578124-.46875-3.125-1.34375-4.4375l-14.65625-21.960937v-29.601563c0-2.121093-.84375-4.15625-2.34375-5.65625l-16-16c-1.5-1.5-3.535156-2.34375-5.65625-2.34375h-18.230468l-6.175782-18.527343c-1.089843-3.269531-4.148437-5.472657-7.59375-5.472657h-24c-2.121093 0-4.15625.84375-5.65625 2.34375l-10.34375 10.34375-10.34375-10.34375c-1.5-1.5-3.535156-2.34375-5.65625-2.34375h-24c-3.445312 0-6.503906 2.203126-7.589843 5.472657l-6.175781 18.527343h-18.234376c-2.121093 0-4.15625.84375-5.65625 2.34375l-16 16c-1.5 1.5-2.34375 3.535157-2.34375 5.65625v29.601563l-14.65625 21.984375c-.867187 1.308594-1.335937 2.84375-1.34375 4.414062v40c0 2.121094.84375 4.15625 2.34375 5.65625l21.65625 21.65625v12.6875c0 3.671876 2.496094 6.867188 6.054688 7.761719l27.746094 6.933594 6.609375 19.832031c1.085937 3.269532 4.144531 5.472656 7.589843 5.472656h24c2.121094 0 4.15625-.84375 5.65625-2.34375l10.34375-10.34375 10.34375 10.34375c1.5 1.5 3.535157 2.34375 5.65625 2.34375h24c3.445313 0 6.503907-2.203124 7.59375-5.472656zm-66.90625-10.527344h-14.917968l-4.617188-13.839843 12.503906-12.503907c1.5-1.5 2.34375-3.535156 2.34375-5.65625v-8h-16v4.6875l-10.457031 10.457032-21.542969-5.390625v-41.753907h-16v12.6875l-8-8v-34.285156l9.242188-13.867187 6.757812 6.753906v4.710937h16v-8c0-2.121093-.84375-4.15625-2.34375-5.65625l-13.65625-13.65625v-25.375l11.3125-11.3125h17.375l11.3125 11.3125v4.6875h16v-8c0-2.121093-.84375-4.15625-2.34375-5.65625l-12.503906-12.503906 4.617188-13.839844h14.917968l11.3125 11.3125v169.375zm38.625 0-11.3125-11.3125v-169.375l11.3125-11.3125h14.921876l4.613281 13.839844-12.503907 12.503906c-1.5 1.5-2.34375 3.535157-2.34375 5.65625v8h16v-4.6875l11.3125-11.3125h17.375l11.3125 11.3125v25.375l-13.65625 13.65625c-1.5 1.5-2.34375 3.535157-2.34375 5.65625v8h16v-4.6875l6.761719-6.75 9.238281 13.839844v34.261719l-8 8v-12.664063h-16v41.753907l-21.542968 5.390625-10.457032-10.457032v-4.6875h-16v8c0 2.121094.84375 4.15625 2.34375 5.65625l12.503907 12.503907-4.613281 13.839843zm0 0" fill="#000000" fill-opacity="1" data-original-color="#3d9ae2ff" stroke="none" stroke-opacity="1"/><path d="m282.414062 245.726562 11.3125-11.3125-13.65625-13.65625v-20.6875h-16v24c0 2.121094.84375 4.15625 2.34375 5.65625zm0 0" fill="#000000" fill-opacity="1" data-original-color="#3d9ae2ff" stroke="none" stroke-opacity="1"/><path d="m285.726562 258.414062-11.3125 11.3125 5.65625 5.65625v12.6875h16v-16c0-2.121093-.84375-4.15625-2.34375-5.65625zm0 0" fill="#000000" fill-opacity="1" data-original-color="#3d9ae2ff" stroke="none" stroke-opacity="1"/><path d="m200.070312 220.757812-13.65625 13.65625 11.3125 11.3125 16-16c1.5-1.5 2.34375-3.535156 2.34375-5.65625v-24h-16zm0 0" fill="#000000" fill-opacity="1" data-original-color="#3d9ae2ff" stroke="none" stroke-opacity="1"/><path d="m186.414062 266.414062c-1.5 1.5-2.34375 3.535157-2.34375 5.65625v16h16v-12.6875l5.65625-5.65625-11.3125-11.3125zm0 0" fill="#000000" fill-opacity="1" data-original-color="#3d9ae2ff" stroke="none" stroke-opacity="1"/></g></g></svg>