<svg id="Layer_1" enable-background="new 0 0 53 53" viewBox="0 0 53 53" xmlns="http://www.w3.org/2000/svg"><g><g><g><path d="m14.6841707 12.6144247 8.8068056 16.097229c.5100937.9323559 1.2569618 1.7180347 2.1641026 2.2689877 1.2866936.779171 2.4549732 1.7248363 3.4859734 2.8022709 1.024313 1.0755653 1.9135685 2.2872047 2.6357059 3.6071396l1.1345844 2.0738144 2.2871437-1.2512703c-6.8774585-10.9322558-12.9095249-21.9139777-18.0260048-32.9483166-.2718143-.4968324-.9566707-.5692644-1.3227625-.1312785-1.0196953.9710832-1.6490622 2.221148-1.8533926 3.5443654-.2067747 1.3187494.0108634 2.6996612.6878443 3.9370584z" fill="#fff"/><path d="m32.9116516 39.9638138c-.1767578 0-.3476563-.09375-.4384766-.2597656l-1.1347656-2.0742188c-.6972656-1.2734375-1.5585938-2.4511719-2.5595703-3.5019531-1.0117188-1.0585938-2.1503906-1.9736328-3.3828125-2.7197285-.9794922-.5947266-1.7890625-1.4433594-2.34375-2.4560547l-8.8066416-16.0976553c-.7167969-1.3115234-.9746094-2.7822266-.7431641-4.2539063.2275391-1.4746094.9199219-2.7988281 2.0029297-3.8300781.2373047-.2890625.649415-.4707031 1.086915-.4199219.4306641.0419922.8115234.2939453 1.0185547.6748047 5.03125 10.8466797 11.0859375 21.9130859 18.0107422 32.9208984.0742188.1171875.0957031.2587891.0615234.3925781-.0351563.1337891-.1230469.2460938-.2441406.3125l-2.2871094 1.2509766c-.0761718.0419932-.1591796.0615245-.2402343.0615245zm-17.7890634-27.5898447 8.8066416 16.0976563c.4707031.8583984 1.1572266 1.578125 1.9853516 2.0810547 1.3066406.7919922 2.5136719 1.7626972 3.5878906 2.8847675 1.0615234 1.1142578 1.9736328 2.3623047 2.7128906 3.7119141l.8945313 1.6357422 1.3828125-.7558594c-6.8300782-10.8955108-12.8085939-21.8457061-17.7744142-32.5546895-.0546875-.0996094-.1748047-.1240234-.2236328-.1289063-.0605469-.0087891-.171875.0009766-.2607422.1074219-.9599619.9189453-1.5498056 2.0458984-1.743165 3.3007813-.1972656 1.2529297.0214844 2.5048828.631836 3.6201172z"/></g><g><path d="m30.881588 46.4725609c1.9306259 3.5288277 5.9971542 5.0228844 9.081501 3.3354378 3.0800934-1.6851196 4.014843-5.9153824 2.0842209-9.4442101-1.9306259-3.5288277-5.9971542-5.0228844-9.0772476-3.3377647-3.0843468 1.6874504-4.0190983 5.9177131-2.0884743 9.446537zm1.9691582-1.0773277c-1.2513161-2.2871742-.6480331-5.0229492 1.34729-6.1145935 1.9995766-1.0939674 4.6287994-.1266975 5.8801155 2.1604767s.6480293 5.0229492-1.3515472 6.1169205c-1.9953194 1.0916442-4.6245423.1243743-5.8758583-2.1628037z" fill="#283e42"/><path d="m37.2251282 50.99897c-2.6230469 0-5.3017578-1.5800781-6.7822266-4.2861328-.9921875-1.8134766-1.3066406-3.859375-.8857422-5.7617188.4257813-1.9277344 1.5527344-3.4775391 3.1728516-4.3632813 1.6171875-.8867188 3.5283203-.9990234 5.3828125-.3173828 1.828125.671875 3.3818359 2.0410156 4.3730469 3.8535156.9921875 1.8125 1.3066406 3.8583984.8867188 5.7607422-.4257813 1.9277344-1.5507813 3.4765625-3.1689453 4.3613281-.9345704.5107423-1.9521485.7529298-2.9785157.7529298zm-5.9052735-4.7666015c1.7958984 3.2822266 5.5664063 4.6884766 8.4033203 3.1367188 1.3613281-.7451172 2.3105469-2.0585938 2.6728516-3.6992188.3681641-1.6669922.0878906-3.4658203-.7871094-5.0654297-.8759766-1.6005859-2.2402344-2.8066406-3.8417969-3.3955078-1.5791016-.5800781-3.1962891-.4882813-4.5566406.2558594-1.3632813.7460938-2.3144531 2.0605469-2.6777344 3.7021484-.368164 1.6660156-.0888671 3.4648437.7871094 5.0654297zm5.6386719 2.2714843c-1.7597656 0-3.5546875-1.0566406-4.5458984-2.8681641-.6640625-1.2119141-.875-2.5810547-.59375-3.8535156.2851563-1.2978516 1.0449219-2.3417969 2.1386719-2.9404297 2.2363281-1.2255859 5.1796875-.1640625 6.5585938 2.359375.6640625 1.2128906.875 2.5810547.59375 3.8535156-.2861328 1.2978516-1.0478516 2.3427734-2.1425781 2.9414063-.6298829.3447266-1.3164064.5078125-2.0087892.5078125zm-.984375-9.1728515c-.53125 0-1.0556641.125-1.5361328.3876953-.8369141.4580078-1.4199219 1.2666016-1.6425781 2.2783203-.2285156 1.0371094-.0527344 2.1582031.4941406 3.1582031 1.1162109 2.0400391 3.4492188 2.9228516 5.1972656 1.9638672.8388672-.4589844 1.4228516-1.2685547 1.6464844-2.2802734.2285156-1.0361328.0527344-2.1572266-.4941406-3.1572266-.8095703-1.4804687-2.2607422-2.3505859-3.6650391-2.3505859z"/></g></g><g><g><g><g><g><g><g><g><path d="m47.4506149 5.5644541.858593 17.4469185c.0873451 1.774929-1.2832298 3.287384-3.0581589 3.374733l-34.3564453 1.691021c-1.7826862.0877294-3.2951417-1.2828475-3.3824887-3.0577765l-.858593-17.4469185c-.0873284-1.7745514 1.2832289-3.2873845 3.0659165-3.375114l34.3564435-1.6910222c1.774929-.0873472 3.2874031 1.2836073 3.3747329 3.0581587z"/><path d="m10.7309866 28.5809994c-.9267578 0-1.8076172-.3378906-2.4990234-.9638672-.7373043-.6669922-1.170898-1.5810547-1.2187496-2.5732422l-.8583984-17.4472647c-.0498047-.9921875.2919922-1.9433593.9599609-2.680664.6689453-.7363282 1.5849605-1.1689453 2.5800777-1.2177735l34.3564462-1.6904297c2.0585938-.1240236 3.7978516 1.4824219 3.8984375 3.5322266l.8583984 17.4472656c.0498047.9912109-.2910156 1.9433594-.9589844 2.6796875-.6679688.7373047-1.5820313 1.1699219-2.5732422 1.2177734l-34.3564453 1.6914063c-.0625008.0039053-.1259774.0048819-.1884774.0048819zm33.5058603-25.5781241c-.0458984 0-.0908203.0009766-.1367188.0029297l-34.3564462 1.6904297c-.7285156.0361328-1.3984375.3525391-1.8886714.8916016-.4882813.5390625-.7373047 1.234375-.7021728 1.9599609l.8584223 17.4472647c.0361328.7246094.3525391 1.3925781.8915777 1.8808594.5400629.4882813 1.2431879.7285156 1.9677973.7021484l34.3564453-1.6914063c.7246094-.0361328 1.3925781-.3525391 1.8808594-.890625.4882813-.5390625.7373047-1.2353516.7021484-1.9599609l-.8583974-17.4472647c-.0722657-1.4521484-1.2773438-2.5859375-2.7148438-2.5859375z"/></g></g><g><path d="m46.3503723 23.1085873c.0899658 1.7700195-1.2800293 3.2900391-3.0599976 3.3699951l-34.3599862 1.6900024c-1.7800288.0900269-3.2900386-1.2799683-3.3800044-3.0499878l-.8600464-17.4500112c-.0799561-1.7699585 1.290039-3.2899781 3.0700073-3.3800049l34.3600464-1.6900024c1.7699585-.0799561 3.2799683 1.2900391 3.3699951 3.0599976z" fill="#5ae4a7"/><path d="m8.7651663 28.6727962c-1.9658198 0-3.6132808-1.5449219-3.7138667-3.5283203l-.8603516-17.4511709c-.0927734-2.0498047 1.4970703-3.8007812 3.5439453-3.9033203l34.3613286-1.6904297c2.0185547-.0849609 3.7890625 1.4912109 3.8935547 3.5332031l.859375 17.4511719c.0507813.9931641-.2910156 1.9462891-.9609375 2.6835938-.6689453.7363281-1.5830078 1.1660156-2.5751953 1.2099609l-34.3583994 1.6904287c-.0634766.0039063-.1269531.0048828-.1894531.0048828zm33.5019541-25.5771474c-.0410156 0-.0820313.0009766-.1240234.0019531l-34.358399 1.6904297c-1.4980469.0761719-2.6630859 1.3583984-2.5957031 2.8583984l.8603516 17.4482422c.0761719 1.4941406 1.3662109 2.6337891 2.8554683 2.5751953l34.3613281-1.6904297c.7255859-.0332031 1.3935547-.3466797 1.8818359-.8847656.4902344-.5390625.7392578-1.2353516.703125-1.9609375v-.0009766l-.859375-17.4501953c-.0751944-1.4501953-1.2841788-2.586914-2.7246084-2.586914z"/></g><g><path d="m42.4615479 7.2471161.7174606 14.5790253-1.4738464 1.6264153-31.4963074 1.5502682-1.6264153-1.4738445-.7174597-14.5790254c.574831-.6341362.8990335-.9919 1.4738455-1.6264148l31.4963074-1.5502701c.6343384.5750108.9920998.8992138 1.6264153 1.473846z" fill="#50d695"/><path d="m10.2085257 25.5028744c-.1240234 0-.2431641-.0458984-.3359375-.1298828l-1.6259766-1.4736328c-.0976563-.0888672-.1572266-.2128906-.1630859-.3457031l-.717773-14.5791007c-.0068359-.1318359.0390625-.2617187.1289062-.3603515l1.4726558-1.6259766c.0898438-.0986328.2138672-.1582031.3466797-.1640625l31.4970703-1.5498047c.1259766-.0205078.2626953.0390625.3603516.1289063l1.6259766 1.4736328c.0976563.0888672.1572266.2128906.1630859.3457031l.7177734 14.5791006c.0068359.1318359-.0390625.2617188-.1289063.3603516l-1.4736328 1.6259766c-.0888672.0976563-.2128906.1572266-.3457031.1630859l-31.4970703 1.5507813c-.0078125.0009765-.0166015.0009765-.024414.0009765zm-1.1367188-2.2050782 1.3193359 1.1953125 31.0830078-1.5302734 1.1953125-1.3193359-.6972646-14.1650381-1.3193626-1.1953125-31.0829821 1.5292968-1.1953125 1.3203125z"/></g><g><circle cx="25.522" cy="15.388" fill="#fff" r="5.969"/></g><g><path d="m16.2102089 10.3339138c.0278416.5657825-.4071999 1.037879-.9654131 1.0653496l-3.9011593.1921234c-.5582142.0274706-1.0375071-.3996296-1.0653496-.9654121-.0274525-.5578346.407198-1.037879.9654121-1.0653496l3.9011593-.1921244c.5582142-.0274706 1.0378981.4075775 1.0653506.9654131z" fill="#fff"/></g><g><path d="m40.7657013 20.1501217c.0278435.5657825-.4071999 1.037878-.9654121 1.0653496l-3.9011612.1921234c-.5582123.0274715-1.0375061-.3996296-1.0653496-.9654121-.0274506-.5578346.4071999-1.0378799.9654121-1.0653496l3.9011612-.1921234c.5582123-.0274716 1.037899.4075756 1.0653496.9654121z" fill="#fff"/></g></g><g><g><path d="m23.7451344 12.491394c.3194008-.3859797.7832241-.5969715 1.3914738-.6329737l-.0297241-.6040058.4314327-.0212317.0292778.594923c.604578.0127363 1.0757961.1678495 1.4136562.4653378.3378601.2974892.5270252.703207.5674915 1.2171535l-.7947445.0391111c-.0325165-.2290554-.1043415-.4243088-.2154751-.5857601-.2057877-.296401-.5179577-.4418898-.9365101-.4364672l.1086159 2.2071199c.7120876.1622276 1.1980228.3234444 1.4578056.4836512.4227314.2644796.6478043.6752596.6752186 1.232338.0396328.8053417-.1940956 1.3904457-.7011814 1.755312-.2814121.2020149-.6946259.3467808-1.2396412.4343014l.0433559.881031-.4314327.0212326-.0433559-.8810329c-.8838634-.0141659-1.49716-.2965832-1.8398914-.8472481-.1876221-.2972946-.2942467-.706316-.3198738-1.2270641l.8038273-.0395565c.0446339.4135876.1246262.7131443.2399788.8986683.2045479.3328819.5621834.5079994 1.0729046.5253563l-.1218014-2.4750624c-.6600704-.0919495-1.1531792-.2755756-1.4793243-.5508785-.3261471-.2753038-.5018845-.6703005-.5272121-1.1849928-.022648-.4601945.1257285-.8832826.4451293-1.2692623zm.7017421 1.8638154c.2066517.1597872.4796486.2647142.8189888.3147831l-.1050396-2.1344566c-.3958702.0346556-.6722336.1696529-.829092.4049921-.1568565.2353392-.2291775.4771404-.216959.7254038.0147495.2997321.1254501.5294913.3321018.6892776zm2.4669342 2.9969902c.093998-.1867218.1351128-.3996735.1233425-.6388531-.0186253-.3784504-.1720486-.6592178-.4602718-.8423052-.1661243-.107152-.4409447-.2028847-.824461-.287199l.1175556 2.3887758c.5165272-.0496998.8644715-.256506 1.0438347-.6204185z"/></g></g></g></g></g></g></g><g><g><path d="m42.2894554 12.6144247-8.8068047 16.097229c-.5100937.9323559-1.2569618 1.7180347-2.1641026 2.2689877-1.2866936.779171-2.4549732 1.7248363-3.4859734 2.8022709-1.024313 1.0755653-1.9135685 2.2872047-2.6357059 3.6071396l-1.1345863 2.0738144-2.2871399-1.2512703c6.8774567-10.9322567 12.909523-21.9139786 18.026001-32.9483185.2718163-.4968324.9566727-.5692644 1.3227654-.1312785 1.0196953.9710832 1.6490631 2.221148 1.8533936 3.5443654.2067718 1.3187513-.0108643 2.6996631-.6878472 3.9370603z" fill="#fff"/><path d="m24.0620422 39.9638138c-.0810547 0-.1640625-.0195313-.2402344-.0615234l-2.2871094-1.2509766c-.1210938-.0664063-.2089844-.1787109-.2441406-.3125-.0341797-.1337891-.0127201-.2753906.0615234-.3925781 6.9248048-11.0078145 12.9794923-22.0742197 17.9951173-32.8916026.2226563-.4091797.6035156-.6621094 1.0332031-.7041016.4208984-.0361327.8496094.1298829 1.1269531.4609376 1.0439453.9902344 1.7363281 2.3144531 1.9638672 3.7900391.2314453 1.4707031-.0263672 2.9414063-.7431641 4.2529297l-8.8066406 16.0976563c-.5546875 1.0126953-1.3642578 1.8613281-2.3427734 2.4560547-1.2333984.7460957-2.3720703 1.6611347-3.3847656 2.720705-1 1.0498047-1.8613281 2.2275391-2.5585938 3.5009766l-1.1347656 2.0742188c-.0908203.1660145-.2617188.2597645-.4384766.2597645zm-1.5810547-1.9345703 1.3828125.7558593.8945313-1.6357422c.7392578-1.3496094 1.6513672-2.5976563 2.7119141-3.7109375 1.0751953-1.1230469 2.2822266-2.0937519 3.5898438-2.8857441.8271484-.5029297 1.5136719-1.2226563 1.984375-2.0810547l8.8066406-16.0976563c.6103516-1.1152344.8291016-2.3671875.6318359-3.6191406-.1933594-1.2558594-.7832031-2.3828125-1.7041016-3.2597656-.1289063-.1484375-.2353516-.1591797-.3007813-.1494141-.0478516.0048828-.1679688.0292969-.2382813.1582031-4.9501952 10.6796876-10.9287108 21.6298829-17.758789 32.5253927zm19.8085938-25.41504h.0097656z"/></g><g><path d="m24.0035648 37.0260239c-3.0800915-1.6851196-7.1466236-.1910629-9.0772467 3.3377647s-.9958735 7.7590904 2.0842199 9.4442101c3.0843468 1.6874466 7.150877.1933899 9.081501-3.3354378 1.9306241-3.5288239.9958726-7.7590866-2.0884742-9.446537zm-5.7565441 10.5320129c-1.9995766-1.0939713-2.6028605-3.8297462-1.3515453-6.1169205s3.8805389-3.2544441 5.8801155-2.1604767c1.9953213 1.0916443 2.5986061 3.8274193 1.34729 6.1145935-1.2513141 2.2871781-3.8805389 3.254448-5.8758602 2.1628037z" fill="#283e42"/><path d="m19.7485657 50.99897c-1.0263672 0-2.0439453-.2421875-2.9785156-.7529297-1.618165-.8847656-2.743165-2.4335938-3.1689463-4.3613281-.4199219-1.9023438-.1054688-3.9482422.8867188-5.7607422.9912109-1.8125 2.5449228-3.1816406 4.3730478-3.8535156 1.8564453-.6816406 3.7666016-.5683594 5.3828125.3173828 3.3212891 1.8173828 4.3476563 6.359375 2.2871094 10.125-1.4804688 2.7060547-4.1591798 4.2861328-6.7822266 4.2861328zm1.5126953-14.1669922c-.6757813 0-1.3691406.125-2.0546875.3769531-1.6015625.5888672-2.9658203 1.7949219-3.8417978 3.3955078-.875 1.5996094-1.1552734 3.3984375-.7871094 5.0654297.3623047 1.640625 1.3115234 2.9541016 2.6728525 3.6992188 2.8339844 1.5507813 6.6074219.1445313 8.4033203-3.1367188 1.7949219-3.28125.9472656-7.2148438-1.890625-8.7675781-.7695312-.4208984-1.6210937-.6328125-2.5019531-.6328125zm-1.2460938 11.671875c-.6923828 0-1.3779297-.1630859-2.0087891-.5078125-2.2353525-1.2226563-2.930665-4.2705078-1.5498047-6.7949219 1.3818359-2.5234375 4.3242188-3.5849609 6.5595703-2.359375 1.09375.5986328 1.8535156 1.6425781 2.1386719 2.9404297.28125 1.2724609.0703125 2.6416016-.59375 3.8535156-.9912109 1.8115235-2.7861327 2.8681641-4.5458984 2.8681641zm-1.5283203-1.3847656c1.7470703.9580078 4.0810547.0761719 5.1972656-1.9638672.546875-1 .7226563-2.1210938.4941406-3.1582031-.2226563-1.0117188-.8056641-1.8203125-1.6425781-2.2783203-1.7509766-.9580078-4.0849609-.078125-5.2021484 1.9628906-1.1152344 2.0400391-.5986328 4.4794922 1.1533203 5.4375z"/></g></g><g><circle cx="28.858" cy="30.197" fill="#283e42" r=".958"/></g></g></svg>