<svg height="512" viewBox="0 0 64 64" width="512" xmlns="http://www.w3.org/2000/svg"><g id="Invoice"><path d="m47 16h-30a.99974.99974 0 0 0 -1 1v23a.99974.99974 0 0 0 1 1h23v3a.99974.99974 0 0 0 1 1h6a.99974.99974 0 0 0 1-1v-27a.99974.99974 0 0 0 -1-1zm-29 7h16v7h-16zm18 0h4v7h-4zm10 7h-4v-7h4zm-4 2h4v7h-4zm4-11h-4v-3h4zm-6 0h-4v-3h4zm-22-3h16v3h-16zm0 14h16v7h-16zm18 0h4v7h-4zm10 11h-4v-2h4z" fill="#19194f"/><g fill="#10b783"><path d="m27 12h-10a1 1 0 0 1 0-2h10a1 1 0 0 1 0 2z"/><path d="m47 50h-30a1 1 0 0 1 0-2h30a1 1 0 0 1 0 2z"/><path d="m47 54h-3a1 1 0 0 1 0-2h3a1 1 0 0 1 0 2z"/><path d="m40 54h-23a1 1 0 0 1 0-2h23a1 1 0 0 1 0 2z"/></g><path d="m52.3291 11.9541-8.37988-7.44824a1.99762 1.99762 0 0 0 -1.32959-.50586h-28.61963a3.00328 3.00328 0 0 0 -3 3v50a3.00328 3.00328 0 0 0 3 3h36a3.00328 3.00328 0 0 0 3-3v-43.55078a2.00628 2.00628 0 0 0 -.6709-1.49512zm-8.3291-4.7271 5.36963 4.773h-4.36963a1.001 1.001 0 0 1 -1-1zm6 50.773h-36a1.001 1.001 0 0 1 -1-1v-50a1.001 1.001 0 0 1 1-1h28v5a3.00328 3.00328 0 0 0 3 3h6v43a1.001 1.001 0 0 1 -1 1z" fill="#19194f"/></g></svg>