<svg id="Layer_1" enable-background="new 0 0 53 53" viewBox="0 0 53 53" xmlns="http://www.w3.org/2000/svg"><g><g><g><g><g><g><g><g><g><g><g><g><g><circle cx="27.253" cy="34.644" r="15.689"/><path d="m27.2536621 50.8330078c-8.9267578 0-16.1894531-7.2617188-16.1894531-16.1884766-.0004883-4.3242188 1.6835938-8.3896484 4.7412109-11.4472656 3.0576172-3.0585938 7.1230469-4.7421875 11.4472656-4.7421875 8.9267578 0 16.1894531 7.2617188 16.1894531 16.1884766.0004883 4.3242188-1.6835938 8.3896484-4.7412109 11.4472656-3.0576172 3.0585938-7.1230468 4.7421875-11.4472656 4.7421875zm-.0009766-31.3779297c-4.0571289 0-7.8710938 1.5800781-10.7402344 4.4492188-2.8686523 2.8681641-4.4482422 6.6826172-4.4482422 10.7402344 0 8.375 6.8139648 15.1884766 15.1894531 15.1884766 4.0571289 0 7.8710938-1.5800781 10.7402344-4.4492188 2.8686523-2.8681641 4.4482422-6.6826172 4.4482422-10.7402344.0000001-8.375-6.8139648-15.1884766-15.1894531-15.1884766z"/></g><g><circle cx="23.902" cy="34.644" fill="#5ae4a7" r="15.689"/><path d="m23.9030762 50.8330078c-8.9267578 0-16.1894531-7.2617188-16.1894531-16.1884766 0-4.3242188 1.6835938-8.3896484 4.7412109-11.4472656 3.0576172-3.0585938 7.1230469-4.7421875 11.4472656-4.7421875 8.9262695 0 16.1889648 7.2617188 16.1894531 16.1884766 0 8.9267578-7.262207 16.1894531-16.1884765 16.1894531zm-.0009766-31.3779297c-4.0571289 0-7.871582 1.5800781-10.7402344 4.4492188-2.8686523 2.8681641-4.4482422 6.6826172-4.4482422 10.7402344 0 8.375 6.8139648 15.1884766 15.1894531 15.1884766 8.375 0 15.1884766-6.8134766 15.1884766-15.1894531-.0004882-8.3750001-6.8144531-15.1884767-15.1894531-15.1884767z"/></g><g><circle cx="23.902" cy="34.644" fill="#fff" r="11.746"/></g><g><path d="m17.494873 35.1445313h-.9946289c-.2763672 0-.5-.2236328-.5-.5s.2236328-.5.5-.5h.9946289c.2763672 0 .5.2236328.5.5s-.2236328.5-.5.5z"/></g><g><path d="m31.3044434 35.1435547h-.9946289c-.2763672 0-.5-.2236328-.5-.5s.2236328-.5.5-.5h.9946289c.2763672 0 .5.2236328.5.5s-.2236329.5-.5.5z"/></g></g></g></g></g></g><g><g><path d="m20.9332504 29.2229385c.6147346-.6726627 1.4762077-1.0145206 2.5844154-1.0255775l-.0000305-1.0999393.7856712-.0000229.0000305 1.0833988c1.0971832.0771599 1.9393768.4010544 2.5265789.9716835.5872002.5706272.894598 1.3245888.9221897 2.261879l-1.4472885.0000401c-.0386047-.4190235-.1516418-.7801533-.3391075-1.0833893-.3473644-.5568523-.9014778-.8490524-1.6623383-.8765984l.0001106 4.0193272c1.2791367.3583412 2.1475182.6946373 2.6051464 1.0088959.7443333.5182457 1.1165142 1.2846107 1.1165409 2.2990875.0000401 1.4665871-.4768467 2.5086479-1.4306622 3.1261826-.5292835.3418503-1.2928944.5679245-2.2908325.6782227l.0000439 1.6044197-.7856693.0000229-.0000439-1.6044235c-1.6044254-.1047096-2.6933537-.6725693-3.2667847-1.7035751-.3142834-.5568542-.4714375-1.3094368-.4714642-2.2577553l1.463829-.000042c.0441284.7553444.1626835 1.3066902.3556652 1.6540337.3418522.6230164.9759121.9731026 1.9021797 1.0502663l-.000124-4.507267c-1.190918-.2260208-2.0703278-.603672-2.6382313-1.1329498-.5679016-.5292778-.8518658-1.2625618-.8518925-2.1998539-.0000225-.8380492.3073334-1.593405.922068-2.2660659zm1.1083031 3.4486504c.3611431.3087463.8477135.5237579 1.459713.6450386l-.0001068-3.8870049c-.7222652.0275879-1.2363911.2481403-1.5423775.6616611-.3059864.4135189-.4589748.8463306-.4589615 1.2984371.0000134.5458337.1805916.9731218.5417328 1.2818681zm4.2138329 5.6649857c.1874485-.3308144.281168-.7140045.2811546-1.1495667-.0000172-.6891861-.2536526-1.2129593-.7609024-1.5713234-.2922192-.2095032-.7829247-.4079742-1.4721146-.5954132l.0001183 4.350132c.9428043-.0441322 1.5933857-.3887405 1.9517441-1.0338287z"/></g></g></g></g></g></g></g></g><g><g><path d="m17.665884 44.44664v2.6665688c0 1.7973976-3.1251726 3.258358-6.9826326 3.258358-3.8538489 0-6.979023-1.4609604-6.979023-3.258358v-2.6665688c0 1.7973976 3.1251738 3.258358 6.979023 3.258358 3.85746 0 6.9826326-1.4609604 6.9826326-3.258358z" fill="#ddd"/><path d="m10.6833496 50.8710938c-4.1938477 0-7.4790039-1.6503906-7.4790039-3.7578125v-2.6669922c0-.2763672.2236328-.5.5-.5s.5.2236328.5.5c0 1.3046875 2.6606445 2.7587891 6.4790039 2.7587891 3.8203125 0 6.4824219-1.4541016 6.4824219-2.7587891 0-.2763672.2236328-.5.5-.5s.5.2236328.5.5v2.6669922c0 2.1074218-3.2866211 3.7578125-7.4824219 3.7578125zm-6.4790039-4.5195313v.7617188c0 1.3046875 2.6606445 2.7578125 6.4790039 2.7578125 3.8203125 0 6.4824219-1.453125 6.4824219-2.7578125v-.7626953c-1.2827148 1.1181641-3.6796875 1.8544922-6.4824219 1.8544922-2.8012695-.0000001-5.1967773-.7363282-6.4790039-1.8535157z"/></g><g><path d="m17.665884 44.44664c0 1.7973976-3.1251726 3.258358-6.9826326 3.258358-3.8538489 0-6.979023-1.4609604-6.979023-3.258358 0-1.8011894 3.1251738-3.258358 6.979023-3.258358 3.85746 0 6.9826326 1.4571686 6.9826326 3.258358z" fill="#ddd"/><path d="m10.6833496 48.2050781c-4.1938477 0-7.4790039-1.6513672-7.4790039-3.7587891s3.2851563-3.7578125 7.4790039-3.7578125c4.1958008 0 7.4824219 1.6503906 7.4824219 3.7578125s-3.2866211 3.7587891-7.4824219 3.7587891zm0-6.5166015c-3.8183594 0-6.4790039 1.453125-6.4790039 2.7578125s2.6606445 2.7587891 6.4790039 2.7587891c3.8203125 0 6.4824219-1.4541016 6.4824219-2.7587891s-2.6621094-2.7578125-6.4824219-2.7578125z"/></g><g><path d="m16.4111023 39.384243v2.6665688c0 1.7973976-3.1251736 3.258358-6.9826336 3.258358-3.8538485 0-6.979022-1.4609604-6.979022-3.258358v-2.6665688c0 1.7973976 3.1251738 3.258358 6.979022 3.258358 3.85746 0 6.9826336-1.4609604 6.9826336-3.258358z" fill="#ddd"/><path d="m9.4284668 45.8095703c-4.1938477 0-7.4790039-1.6513672-7.4790039-3.7587891v-2.6669922c0-.2763672.2236328-.5.5-.5s.5.2236328.5.5c0 1.3046875 2.6606445 2.7587891 6.4790039 2.7587891 3.8203125 0 6.4824219-1.4541016 6.4824219-2.7587891 0-.2763672.2236328-.5.5-.5s.5.2236328.5.5v2.6669922c0 2.1074219-3.2866211 3.7587891-7.4824219 3.7587891zm-6.4790039-4.5205078v.7617188c0 1.3046875 2.6606445 2.7587891 6.4790039 2.7587891 3.8203125 0 6.4824219-1.4541016 6.4824219-2.7587891v-.7626953c-1.2827148 1.1181641-3.6796875 1.8544922-6.4824219 1.8544922-2.8012695-.0000001-5.1967773-.7363282-6.4790039-1.8535157z"/></g><g><path d="m16.4111023 39.384243c0 1.7973976-3.1251736 3.258358-6.9826336 3.258358-3.8538485 0-6.979022-1.4609604-6.979022-3.258358 0-1.8011894 3.1251738-3.258358 6.979022-3.258358 3.85746 0 6.9826336 1.4571686 6.9826336 3.258358z" fill="#ddd"/><path d="m9.4284668 43.1425781c-4.1938477 0-7.4790039-1.6513672-7.4790039-3.7587891s3.2851563-3.7578125 7.4790039-3.7578125c4.1958008 0 7.4824219 1.6503906 7.4824219 3.7578125s-3.2866211 3.7587891-7.4824219 3.7587891zm0-6.5166015c-3.8183594 0-6.4790039 1.453125-6.4790039 2.7578125s2.6606445 2.7587891 6.4790039 2.7587891c3.8203125 0 6.4824219-1.4541016 6.4824219-2.7587891s-2.6621094-2.7578125-6.4824219-2.7578125z"/></g></g><g><g><path d="m50.5503654 44.44664v2.6665688c0 1.7973976-3.1251717 3.258358-6.9826317 3.258358-3.8538475 0-6.979023-1.4609604-6.979023-3.258358v-2.6665688c0 1.7973976 3.1251755 3.258358 6.979023 3.258358 3.8574601 0 6.9826317-1.4609604 6.9826317-3.258358z" fill="#ddd"/><path d="m43.567627 50.8710938c-4.1938477 0-7.4790039-1.6503906-7.4790039-3.7578125v-2.6669922c0-.2763672.2236328-.5.5-.5s.5.2236328.5.5c0 1.3046875 2.6606445 2.7587891 6.4790039 2.7587891 3.8203125 0 6.4829102-1.4541016 6.4829102-2.7587891 0-.2763672.2236328-.5.5-.5s.5.2236328.5.5v2.6669922c-.0000001 2.1074218-3.2871095 3.7578125-7.4829102 3.7578125zm-6.479004-4.5195313v.7617188c0 1.3046875 2.6606445 2.7578125 6.4790039 2.7578125 3.8203125 0 6.4829102-1.453125 6.4829102-2.7578125v-.7626953c-1.2827148 1.1181641-3.6801758 1.8544922-6.4829102 1.8544922-2.8012695-.0000001-5.1967773-.7363282-6.4790039-1.8535157z"/></g><g><path d="m50.5503654 44.44664c0 1.7973976-3.1251717 3.258358-6.9826317 3.258358-3.8538475 0-6.979023-1.4609604-6.979023-3.258358 0-1.8011894 3.1251755-3.258358 6.979023-3.258358 3.8574601 0 6.9826317 1.4571686 6.9826317 3.258358z" fill="#ddd"/><path d="m43.567627 48.2050781c-4.1938477 0-7.4790039-1.6513672-7.4790039-3.7587891s3.2851563-3.7578125 7.4790039-3.7578125c4.1958008 0 7.4829102 1.6503906 7.4829102 3.7578125s-3.2871095 3.7587891-7.4829102 3.7587891zm0-6.5166015c-3.8183594 0-6.4790039 1.453125-6.4790039 2.7578125s2.6606445 2.7587891 6.4790039 2.7587891c3.8203125 0 6.4829102-1.4541016 6.4829102-2.7587891s-2.6625977-2.7578125-6.4829102-2.7578125z"/></g><g><path d="m49.2955856 39.384243v2.6665688c0 1.7973976-3.1251755 3.258358-6.9826355 3.258358-3.8538475 0-6.979023-1.4609604-6.979023-3.258358v-2.6665688c0 1.7973976 3.1251755 3.258358 6.979023 3.258358 3.8574601 0 6.9826355-1.4609604 6.9826355-3.258358z" fill="#ddd"/><path d="m42.3127441 45.8095703c-4.1938477 0-7.4790039-1.6513672-7.4790039-3.7587891v-2.6669922c0-.2763672.2236328-.5.5-.5s.5.2236328.5.5c0 1.3046875 2.6606445 2.7587891 6.4790039 2.7587891 3.8203125 0 6.4829102-1.4541016 6.4829102-2.7587891 0-.2763672.2236328-.5.5-.5s.5.2236328.5.5v2.6669922c0 2.1074219-3.2871094 3.7587891-7.4829102 3.7587891zm-6.4790039-4.5205078v.7617188c0 1.3046875 2.6606445 2.7587891 6.4790039 2.7587891 3.8203125 0 6.4829102-1.4541016 6.4829102-2.7587891v-.7626953c-1.2827148 1.1181641-3.6801758 1.8544922-6.4829102 1.8544922-2.8012695-.0000001-5.1967773-.7363282-6.4790039-1.8535157z"/></g><g><path d="m49.2955856 39.384243c0 1.7973976-3.1251755 3.258358-6.9826355 3.258358-3.8538475 0-6.979023-1.4609604-6.979023-3.258358 0-1.8011894 3.1251755-3.258358 6.979023-3.258358 3.8574601 0 6.9826355 1.4571686 6.9826355 3.258358z" fill="#ddd"/><path d="m42.3127441 43.1425781c-4.1938477 0-7.4790039-1.6513672-7.4790039-3.7587891s3.2851563-3.7578125 7.4790039-3.7578125c4.1958008 0 7.4829102 1.6503906 7.4829102 3.7578125s-3.2871094 3.7587891-7.4829102 3.7587891zm0-6.5166015c-3.8183594 0-6.4790039 1.453125-6.4790039 2.7578125s2.6606445 2.7587891 6.4790039 2.7587891c3.8203125 0 6.4829102-1.4541016 6.4829102-2.7587891s-2.6625977-2.7578125-6.4829102-2.7578125z"/></g></g><g><g><path d="m15.107481 11.5876369h-.8852835v4.4493942c0 .3802452-.3100328.6903992-.690155.6903992h-2.9159422c-.3800011 0-.690155-.310154-.690155-.6903992v-4.4493942h-.8852844c-.61518 0-.9852905-.6801414-.6552315-1.2003222l3.0309677-4.7114205c.3050261-.4801288 1.0003099-.4801288 1.3104639 0l3.0308456 4.7114205c.335187.5201808-.0350446 1.2003222-.6502256 1.2003222z" fill="#5ae4a7"/><path d="m13.5319824 17.2275391h-2.9160156c-.65625 0-1.1899414-.5341797-1.1899414-1.1904297v-3.9492188h-.3852539c-.4731445 0-.8911133-.2470703-1.1191406-.6621094-.2255859-.4101563-.2094727-.9111328.0419922-1.3066406l3.0322266-4.7138672c.2329102-.3671875.6333008-.5878906 1.0693359-.5898438h.0043945c.4365234 0 .8388672.2197266 1.0771484.5888672l3.03125 4.7128906c.2543945.3935547.2734375.8945313.0493164 1.3056641-.2231445.4101563-.6523438.6650391-1.1196289.6650391h-.3852539v3.9492188c0 .65625-.5341797 1.1904297-1.1904297 1.1904297zm-1.4624023-11.4121094c-.0004883 0-.0004883 0-.0009766 0-.0556641 0-.159668.0175781-.2304688.1289063l-3.0322266 4.7138672c-.0795898.125-.0322266.2421875-.0078125.2861328.0239258.0429688.0947266.1435547.2426758.1435547h.8852539c.2763672 0 .5.2236328.5.5v4.4492188c0 .1035156.0869141.1904297.1899414.1904297h2.9160156c.1030273 0 .1904297-.0869141.1904297-.1904297v-4.4492188c0-.2763672.2236328-.5.5-.5h.8852539c.1479492 0 .2182617-.1005859.2416992-.1435547.0239258-.0429688.0703125-.1582031-.0117188-.2851563l-3.03125-4.7128906c-.0761717-.1181641-.1904295-.1308594-.2368162-.1308594z"/></g><g><path d="m42.1168785 14.6067724h-.8852844v4.4493952c0 .3802433-.3100319.6903992-.690155.6903992h-2.9159431c-.3799973 0-.690155-.3101559-.690155-.6903992v-4.4493952h-.8852806c-.615181 0-.9852905-.6801424-.6552353-1.2003222l3.0309677-4.7114201c.305027-.4801292 1.0003128-.4801292 1.3104668 0l3.0308456 4.7114201c.3351859.5201798-.0350457 1.2003222-.6502267 1.2003222z" fill="#ddd"/><path d="m40.5412598 20.2460938h-2.9155273c-.65625 0-1.1904297-.5332031-1.1904297-1.1894531v-3.9501953h-.3852539c-.4726563 0-.8911133-.2470703-1.1191406-.6611328-.2250977-.4101563-.2094727-.9111328.0415039-1.3066406l3.0332031-4.7138672c.2324219-.3662109.6323242-.5878906 1.0683594-.5898438h.0053711c.4360352 0 .8383789.2197266 1.0766602.5888672l3.0317383 4.7119141c.2543945.3955078.2729492.8955078.0488281 1.3066406-.2236328.4091797-.6523438.6640625-1.1196289.6640625h-.3852539v3.9501953c-.0000001.6562499-.5341798 1.1894531-1.1904298 1.1894531zm-1.4624024-11.4111329c-.0004883 0-.0004883 0-.0009766 0-.0556641 0-.1591797.0175781-.2294922.1279297l-3.0332031 4.7138672c-.0795898.1259766-.0322266.2421875-.0078125.2861328.0239258.0429688.0947266.1435547.2426758.1435547h.8852539c.2763672 0 .5.2236328.5.5v4.4501953c0 .1044922.0854492.1894531.1904297.1894531h2.9155273c.1049805 0 .1904297-.0849609.1904297-.1894531v-4.4501953c0-.2763672.2236328-.5.5-.5h.8852539c.1479492 0 .2182617-.0996094.2416992-.1425781.0239258-.0439453.0703125-.1591797-.0117188-.2871094l-3.03125-4.7109375c-.0761717-.118164-.1904296-.1308594-.2368163-.1308594z"/></g><g><path d="m28.4709129 8.9009562h-.8852844v4.4493942c0 .3802443-.3100319.6903992-.690155.6903992h-2.9159431c-.3799992 0-.690155-.3101549-.690155-.6903992v-4.4493942h-.8852825c-.615181 0-.9852905-.6801424-.6552334-1.2003226l3.0309677-4.7114201c.305027-.480129 1.0003109-.480129 1.3104649 0l3.0308456 4.7114201c.3351878.5201802-.0350438 1.2003226-.6502248 1.2003226z" fill="#283e42"/><path d="m26.8952637 14.5410156h-2.9155273c-.65625 0-1.1904297-.5341797-1.1904297-1.1904297v-3.9492187h-.3852539c-.4726563 0-.890625-.2470703-1.1186523-.6621094-.2255859-.4101563-.2099609-.9111328.0410156-1.3066406l3.033203-4.7138672c.2324219-.3662109.6323242-.5878906 1.0683594-.5898438h.0048828c.4365234 0 .8388672.2197266 1.0771484.5888672l3.0317383 4.7119141c.2543945.3955078.2729492.8964844.0488281 1.3076172-.2236328.4091797-.652832.6640625-1.1196289.6640625h-.3852539v3.9492188c.0000001.6562499-.5341796 1.1904296-1.1904296 1.1904296zm-1.4624024-11.4121093c-.0004883 0-.0004883 0-.0009766 0-.0556641 0-.1591797.0175781-.2294922.1279297l-3.0332031 4.7138672c-.0795898.1259766-.0322266.2431641-.0078125.2871094.0239258.0429688.0952148.1435547.2426758.1435547h.8852539c.2763672 0 .5.2236328.5.5v4.4492188c0 .1035156.0874023.1904297.1904297.1904297h2.9155273c.1030273 0 .1904297-.0869141.1904297-.1904297v-4.4492189c0-.2763672.2236328-.5.5-.5h.8852539c.1474609 0 .2182617-.0996094.2416992-.1435547.0239258-.0429688.0708008-.1591797-.0117188-.2871094l-3.03125-4.7109375c-.0761717-.118164-.1904296-.1308593-.2368163-.1308593z"/></g></g></g></svg>